<svg width="31" height="30" viewBox="0 0 31 30" fill="none" xmlns="http://www.w3.org/2000/svg">
<path d="M26.7696 13.1411C27.842 12.4443 29.0362 11.5313 29.0118 10.2579C28.9631 8.74425 27.2327 7.90332 25.7704 7.42279C19.8238 5.47664 13.9016 3.50645 7.95496 1.5603C8.5155 7.63902 9.07604 13.6937 9.63658 19.7724C9.73407 20.7816 9.95338 22.0069 10.9039 22.4154C11.7812 22.7758 12.7561 22.2472 13.536 21.7426C17.9472 18.8835 22.3584 16.0243 26.7696 13.1651V13.1411Z" fill="#4DBDD7"/>
<path d="M15.9731 20.1328C14.3159 21.0218 12.6343 21.9348 11.2695 23.2322C9.90468 24.5297 8.88103 26.2596 8.85666 28.1336C12.8779 26.1154 16.8992 24.1212 20.9205 22.103C22.6265 21.2621 24.3324 20.3731 25.6729 19.0276C27.0133 17.6821 27.8663 15.76 27.4764 13.934L15.9974 20.1328H15.9731Z" fill="#11A8CA"/>
<path d="M4.98163 26.9804C4.61606 26.5719 4.4698 26.0193 4.34795 25.4667C3.61681 22.2471 2.91008 19.0276 2.17894 15.808C1.81337 14.1261 1.42341 12.3722 1.8621 10.7144C2.64198 7.68701 5.7859 5.90906 7.51627 3.29016C8.24741 8.19158 8.97853 13.117 9.70967 18.0184C10.124 20.8295 10.4652 23.977 8.71044 26.2355C7.8087 27.3648 5.93208 28.0616 4.95723 26.9804H4.98163Z" fill="#1C8EBD"/>
<path d="M19.6044 7.95136C20.5061 8.19163 21.4322 8.45592 22.1878 8.9845C22.9433 9.51309 23.5526 10.378 23.5038 11.291C23.4551 12.2041 22.5777 13.093 21.6516 12.9249C20.9936 12.8047 20.5061 12.2281 20.0431 11.7475C18.6539 10.33 16.8017 9.34489 14.8276 9.03255C14.2671 8.93644 13.6822 8.8884 13.1947 8.64813C12.7073 8.38384 12.293 7.83122 12.4392 7.30263C12.5611 6.84613 13.0485 6.53379 13.536 6.46171C14.0234 6.38963 14.5108 6.53379 14.9739 6.65392C16.5093 7.0864 18.069 7.49485 19.6044 7.92733V7.95136Z" fill="#93D6E7"/>
<path d="M26.4772 19.1478C25.941 19.6283 25.3074 20.0367 24.6738 20.3971C21.4567 22.3193 18.1909 24.1693 14.8764 25.9713C13.2192 26.8603 11.5619 27.7493 9.90466 28.6142C8.68609 29.2389 7.00452 30.6084 5.61535 29.6954C4.37241 28.9025 4.20179 26.2596 3.83622 24.9382C3.30005 22.8959 2.76392 20.8296 2.27649 18.7633C1.91092 17.2016 1.56966 15.6399 1.22846 14.0541C1.03349 13.1892 0.131802 10.8586 0.667971 10.0657C2.81265 6.84616 5.00605 3.65062 7.19947 0.455091C7.6869 -0.265706 8.17431 0.0226133 8.78359 0.286905C9.70971 0.671331 10.6846 0.983677 11.6351 1.32005C13.536 2.01682 15.4126 2.73761 17.2892 3.45841C20.9936 4.87598 24.6981 6.3416 28.3782 7.85528C29.4261 8.28776 30.5472 8.88841 30.4985 10.1378C30.4985 10.7385 30.2304 11.3391 30.011 11.8917C29.4505 13.2372 28.9143 14.6308 28.2807 15.9522C27.8176 16.8893 27.5008 18.0185 26.7941 18.7874C26.6966 18.8835 26.5991 19.0036 26.4772 19.0997V19.1478ZM14.9495 23.8329C14.9495 23.8329 15.0227 23.7609 15.0227 23.7368C15.1689 23.5206 15.3151 23.2563 15.3395 22.992C15.3395 22.7277 15.242 22.4154 14.9739 22.2952C14.7546 22.1991 14.5109 22.2472 14.2915 22.3193C12.2931 22.944 11.0257 24.6018 10.2215 26.4038C10.1484 26.572 10.0753 26.7642 10.1728 26.9324C10.4896 27.533 14.2671 24.5297 14.9495 23.8329ZM20.8718 18.6672C20.8718 18.6672 20.7012 18.5471 20.6037 18.5231C20.2869 18.427 19.9701 18.6432 19.702 18.8594C18.4347 19.8445 17.1673 20.5893 16.8505 22.2472C16.8018 22.5115 16.8505 22.8479 17.0942 22.968C17.2405 23.016 17.3867 22.968 17.5329 22.9199C18.1665 22.7037 18.7271 22.2952 19.3364 22.0069C20.4819 21.4543 21.3349 20.7335 21.1643 19.34C21.1399 19.0997 21.0424 18.8354 20.8718 18.6672ZM28.3782 10.8346C29.0118 10.1858 28.8656 9.36894 27.9882 9.10465C26.8915 8.7923 25.8192 8.43192 24.7469 8.04749C22.2366 7.13448 19.7507 6.22146 17.2405 5.30845C14.5596 4.32336 11.8788 3.36231 9.19794 2.37722C9.07608 2.32917 8.92987 2.28112 8.83239 2.37722C8.71053 2.4493 8.71051 2.61748 8.73488 2.76164C9.05171 5.78899 9.41723 8.76828 9.75843 11.7716C10.124 14.823 10.514 17.8743 10.9283 20.9257C10.977 21.2861 11.0989 21.7426 11.4645 21.8147C11.6838 21.8628 11.9032 21.7426 12.0981 21.6225C14.9496 19.9647 17.7523 18.1867 20.5306 16.3847C21.7735 15.5918 23.0165 14.823 24.2107 13.982C25.2587 13.2372 26.1848 12.3002 27.2571 11.6034C27.5739 11.3872 27.9395 11.195 28.2319 10.9307C28.2807 10.8826 28.305 10.8586 28.3538 10.8105L28.3782 10.8346ZM6.59019 26.1635C7.46756 24.9141 9.31977 23.3044 9.24666 21.6706C9.22228 21.142 9.0517 20.6134 8.8811 20.1088C8.78362 19.8445 8.63738 19.5322 8.34493 19.5562C8.1987 19.5562 8.10118 19.6763 8.00369 19.7724C6.85824 20.9017 5.54224 22.079 5.46913 23.8089C5.42039 24.7219 5.63974 25.6349 5.85908 26.5479C5.88345 26.6681 5.93216 26.7882 6.05402 26.8122C6.1515 26.8122 6.22461 26.7402 6.27335 26.644C6.39521 26.4759 6.49273 26.3317 6.61458 26.1635H6.59019ZM3.7631 16.2405C4.25053 15.9522 4.59173 15.1834 4.98167 14.847C5.6397 14.2223 6.32212 13.5976 6.83392 12.8288C7.51631 11.8197 7.90622 10.5703 7.63814 9.39297C7.5894 9.20076 7.51627 8.98451 7.3213 8.91243C7.05321 8.81633 6.8339 9.0566 6.6633 9.27283C5.73719 10.4261 4.68919 11.5554 3.88493 12.7807C3.54373 13.3093 3.25131 13.8859 3.15382 14.5106C3.12945 14.7028 3.10509 16.3607 3.39755 16.3607C3.54378 16.3607 3.66564 16.3126 3.7875 16.2405H3.7631ZM7.78436 14.4145C7.51628 14.4145 7.27262 14.6308 7.07765 14.823C5.85908 16.1444 4.10432 17.4899 4.07994 19.4361C4.07994 19.7725 4.15302 20.1328 4.4211 20.3251C4.68919 20.5413 5.07917 20.4932 5.37162 20.3251C7.29696 19.2679 8.92987 17.2737 8.29621 14.9912C8.2231 14.7509 8.12558 14.5106 7.88187 14.4385C7.83312 14.4385 7.80878 14.4385 7.76004 14.4385L7.78436 14.4145ZM2.3252 11.243C2.37395 11.5073 2.52018 11.7476 2.78827 11.7956C3.03198 11.8437 4.05554 10.4982 4.20177 10.306C5.34722 8.93646 6.59019 7.47085 7.05325 5.71691C7.12636 5.47665 7.17513 5.23638 7.07765 5.02014C7.00453 4.8039 6.73642 4.61168 6.51708 4.73182C6.39522 4.77987 6.32209 4.87598 6.27335 4.99611C5.05478 6.75005 3.76313 8.47996 2.64204 10.306C2.47144 10.5703 2.32518 10.8346 2.30081 11.1469C2.30081 11.195 2.30081 11.243 2.30081 11.2911L2.3252 11.243ZM24.0888 19.0516C24.2106 18.6432 24.1376 18.2107 24.0645 17.7782C24.0401 17.586 23.9669 17.3938 23.8451 17.2256C23.7232 17.0815 23.5283 16.9613 23.3333 16.9854C22.9677 17.0334 22.8459 17.4899 22.7971 17.8503C22.7484 18.3068 22.4559 19.8686 23.1627 19.9166C23.382 19.9166 23.6014 19.8205 23.7476 19.6283C23.9182 19.4361 24.0157 19.2439 24.0645 19.0276L24.0888 19.0516ZM26.5016 14.9431C26.5016 14.9431 26.2822 14.8951 26.1604 14.8951C25.7461 14.9191 25.4292 15.3035 25.3074 15.712C25.1611 16.2405 25.3561 16.8172 25.3805 17.3698C25.3805 17.6101 25.4536 17.8743 25.6973 17.9464C25.9654 18.0425 26.2091 17.7302 26.331 17.4659C26.5503 17.0094 27.3302 15.2074 26.5016 14.9191V14.9431Z" fill="black"/>
</svg>
